<svg xmlns="http://www.w3.org/2000/svg" viewBox="0 0 32 32">
  <!-- Background -->
  <rect width="32" height="32" rx="4" fill="#1e1e2e"/>

  <!-- Grid lines -->
  <line x1="16" y1="2" x2="16" y2="30" stroke="rgba(205, 214, 244, 0.2)" stroke-width="0.5"/>
  <line x1="2" y1="16" x2="30" y2="16" stroke="rgba(205, 214, 244, 0.2)" stroke-width="0.5"/>

  <!-- F (top-left) - Electric Blue - Centered in quadrant -->
  <path d="M 4.5 3 L 4.5 13 L 6.5 13 L 6.5 9 L 10.5 9 L 10.5 7 L 6.5 7 L 6.5 5 L 11.5 5 L 11.5 3 Z"
        fill="#00d4ff"/>

  <!-- O (top-right) - Vibrant Purple - Centered in quadrant -->
  <g fill="#a55eea">
    <!-- Outer rectangle -->
    <rect x="20.5" y="3" width="7" height="10"/>
    <!-- Inner rectangle (cutout) -->
    <rect x="22.5" y="5" width="3" height="6" fill="#1e1e2e"/>
  </g>

  <!-- S (bottom-left) - Lime Green - Centered in quadrant -->
  <g fill="#26de81">
    <!-- Top bar -->
    <rect x="4.5" y="19.5" width="7" height="2"/>
    <!-- Middle bar -->
    <rect x="4.5" y="23" width="7" height="2"/>
    <!-- Bottom bar -->
    <rect x="4.5" y="26.5" width="7" height="2"/>
    <!-- Left connector -->
    <rect x="4.5" y="19.5" width="2" height="5.5"/>
    <!-- Right connector -->
    <rect x="9.5" y="23" width="2" height="5.5"/>
  </g>

  <!-- S (bottom-right) - Hot Pink - Centered in quadrant -->
  <g fill="#ff3d71">
    <!-- Top bar -->
    <rect x="20.5" y="19.5" width="7" height="2"/>
    <!-- Middle bar -->
    <rect x="20.5" y="23" width="7" height="2"/>
    <!-- Bottom bar -->
    <rect x="20.5" y="26.5" width="7" height="2"/>
    <!-- Left connector -->
    <rect x="20.5" y="19.5" width="2" height="5.5"/>
    <!-- Right connector -->
    <rect x="25.5" y="23" width="2" height="5.5"/>
  </g>
</svg>
