<?xml version="1.0" encoding="UTF-8" standalone="no"?>
<svg
   width="56.046871mm"
   height="56.395092mm"
   viewBox="0 0 56.046871 56.395092"
   version="1.1"
   id="svg1"
   xml:space="preserve"
   xmlns="http://www.w3.org/2000/svg">
  <g
     id="layer1"><path
       style="fill:#030303;stroke:none"
       d="m 27.631252,0.0562466 c -5.400429,0.47261 -10.501252,1.52483 -15.081246,4.64736 -3.2415529,2.21001 -5.9381249,4.92367 -8.1079689,8.1945304 -7.590536,11.44209 -5.19107201,27.79332 5.197552,36.69767 6.1173109,5.24329 14.0254729,7.41747 21.9604129,6.64908 3.18892,-0.3088 6.40892,-1.37442 9.26042,-2.80017 21.67647,-10.83824 19.81078,-44.0838704 -3.43958,-51.8354704 -3.04073,-1.01377 -6.56288,-1.83538 -9.78959,-1.553 m 0.79375,14.9585504 h -0.26458 L 21.016673,7.3418866 c 0.990587,-0.20435 2.426639,-0.84308 3.414879,-0.44526 2.41886,0.97373 3.80349,5.7924604 3.99345,8.1181704 m 7.40834,-7.4083304 c 0.0666,3.2269004 0.53622,6.1692104 -0.79375,9.2604204 h -0.26459 c -3.9e-4,-3.63496 -0.9983,-6.83378 -2.64583,-10.0541704 l 3.70417,0.79375 M 21.810423,16.602297 11.756256,13.956467 c 2.656722,-4.5012704 7.847329,-0.48495 10.054167,2.64583 m 20.902079,-4.7625 c 3.75248,3.19331 0.46409,7.67555 -2.91041,10.05417 l 1.87985,-5.29167 1.03056,-4.7625 m -25.929162,9.26042 v 0.26458 l -10.0541669,2.64584 0.79375,-3.43959 9.2604169,0.52917 m 32.014582,0 c 2.03808,4.73704 -3.26069,7.06956 -7.40833,7.40833 v -0.26458 l 7.40833,-7.14375 m -21.16667,0.87705 c 8.03102,-0.95791 9.11311,11.57266 1.05834,12.53341 -8.031023,0.95791 -9.113103,-11.57267 -1.05834,-12.53341 m -12.699996,6.00212 v 0.26458 l -7.4083329,7.14375 c -2.038078,-4.73704 3.2606939,-7.06956 7.4083329,-7.40833 m 34.660416,4.49792 -0.79375,3.43958 -9.26042,-0.52917 4.49792,-0.92032 5.55625,-1.99009 m -33.072916,2.11666 -2.645833,10.05417 c -4.3499629,-2.84295 -0.628341,-7.74627 2.645833,-10.05417 m 5.027084,5.02709 c 0,3.64629 0.990812,6.8191 2.645832,10.05416 l -3.704166,-0.79375 c -0.05884,-2.85066 -1.024424,-6.87617 1.058334,-9.26041 m 13.229162,0.26458 c 3.22977,1.34288 6.27326,2.36833 9.78959,2.64583 -2.24668,3.80654 -8.84232,1.26143 -9.78959,-2.64583 m -6.61458,1.5875 7.14375,7.67292 c -0.99058,0.20434 -2.42664,0.84308 -3.41488,0.44525 -2.00884,-0.80867 -4.45801,-6.0799 -3.72887,-8.11817 z"
       id="path1" /></g></svg>
