<?xml version="1.0" encoding="UTF-8" standalone="no"?>
<!-- Uploaded to: SVG Repo, www.svgrepo.com, Generator: SVG Repo Mixer Tools -->

<svg
   width="800px"
   height="800px"
   viewBox="0 0 24 24"
   fill="none"
   version="1.1"
   id="svg1"
   sodipodi:docname="turbine.svg"
   inkscape:version="1.3.2 (091e20ef0f, 2023-11-25, custom)"
   xmlns:inkscape="http://www.inkscape.org/namespaces/inkscape"
   xmlns:sodipodi="http://sodipodi.sourceforge.net/DTD/sodipodi-0.dtd"
   xmlns="http://www.w3.org/2000/svg"
   xmlns:svg="http://www.w3.org/2000/svg">
  <defs
     id="defs1" />
  <sodipodi:namedview
     id="namedview1"
     pagecolor="#505050"
     bordercolor="#eeeeee"
     borderopacity="1"
     inkscape:showpageshadow="0"
     inkscape:pageopacity="0"
     inkscape:pagecheckerboard="0"
     inkscape:deskcolor="#505050"
     inkscape:export-bgcolor="#ffffff00"
     inkscape:zoom="0.6175"
     inkscape:cx="395.95142"
     inkscape:cy="400"
     inkscape:window-width="5076"
     inkscape:window-height="1372"
     inkscape:window-x="0"
     inkscape:window-y="0"
     inkscape:window-maximized="1"
     inkscape:current-layer="svg1" />
  <g
     id="g1"
     style="stroke:#000000;stroke-opacity:1">
    <path
       d="M21 9.5C21 11.9853 16.9706 14 12 14M21 9.5C21 7.01472 16.9706 5 12 5C7.02944 5 3 7.01472 3 9.5M21 9.5V15C21 17.2091 16.9706 19 12 19M12 14C7.02944 14 3 11.9853 3 9.5M12 14V19M3 9.5V15C3 17.2091 7.02944 19 12 19M7 18.3264V13.2422M17 18.3264V13.2422M16 9.5C16 10.3284 14.2091 11 12 11C9.79086 11 8 10.3284 8 9.5C8 8.67157 9.79086 8 12 8C14.2091 8 16 8.67157 16 9.5Z"
       stroke="#000000"
       stroke-width="2"
       stroke-linecap="round"
       stroke-linejoin="round"
       id="path1"
       style="stroke:#000000;stroke-opacity:1" />
  </g>
</svg>
