<?xml version="1.0" encoding="UTF-8" standalone="no"?>
<svg
   width="64"
   height="64"
   viewBox="0 0 64 64"
   fill="none"
   version="1.1"
   id="svg1"
   xmlns="http://www.w3.org/2000/svg"
   xmlns:svg="http://www.w3.org/2000/svg">
  <defs
     id="defs1" />
  <g
     id="g1">
    <path
       d="m 7.8313318,59.068908 c 0,0 0,-4.833733 3.2224892,-6.444978 1.611244,-0.966747 3.222489,-1.611244 4.833734,0 0,-2.577991 1.611244,-4.833733 3.222489,-4.833733 1.611244,0 3.222489,1.611244 3.222489,4.833733 0,-3.222489 1.611244,-6.444978 4.833733,-6.444978 3.222489,0 4.833734,2.577991 4.833734,6.444978 0,-3.866987 1.611245,-6.444978 4.833734,-6.444978 3.222489,0 4.833733,3.222489 4.833733,6.444978 0,-3.222489 1.611245,-4.833733 3.222489,-4.833733 1.611245,0 3.222489,2.255742 3.222489,4.833733 1.611245,-1.611244 3.22249,-0.966747 4.833734,0 3.222489,1.611245 3.222489,6.444978 3.222489,6.444978 z"
       style="stroke:#000000;stroke-opacity:1"
       stroke-width="2.57799"
       stroke-linecap="round"
       stroke-linejoin="round"
       fill="none"
       id="cloud" />
    <path
       d="M 35.222489,13.954061 H 28.777511 L 26.19952,46.178952 m 11.60096,0 -2.577991,-32.224891"
       style="stroke:#000000;stroke-opacity:1"
       stroke-width="2.57799"
       stroke-linecap="round"
       stroke-linejoin="round"
       fill="none"
       id="tower" />
    <path
       d="m 28.133013,5.8978383 h 7.733974"
       style="stroke:#000000;stroke-opacity:1"
       stroke-width="2.57799"
       stroke-linecap="round"
       id="cap" />
    <path
       d="m 27.166266,23.621528 h 9.667468"
       style="stroke:#000000;stroke-opacity:1"
       stroke-width="1.93349"
       stroke-linecap="round"
       id="stripe1" />
    <path
       d="M 26.521769,33.288996 H 37.478231"
       style="stroke:#000000;stroke-opacity:1"
       stroke-width="1.93349"
       stroke-linecap="round"
       id="stripe2" />
    <ellipse
       cx="32"
       cy="9.120327"
       rx="6.4449782"
       ry="4.1892357"
       style="stroke:#000000;stroke-opacity:1"
       stroke-width="2.57799"
       fill="none"
       id="dome" />
  </g>
</svg>
