<?xml version="1.0" encoding="UTF-8" standalone="no"?>
<svg
   width="800px"
   height="800px"
   viewBox="0 0 24 24"
   fill="none"
   version="1.1"
   id="svg1"
   xmlns="http://www.w3.org/2000/svg">
  <g
     id="g1">
    <!-- Cloud base - symmetrical design with gentle bumps -->
    <path
       d="M 4.5 20 C 4.5 20 4.5 18.5 5.5 18 C 6 17.7 6.5 17.5 7 18 C 7 17.2 7.5 16.5 8 16.5 C 8.5 16.5 9 17 9 18 C 9 17 9.5 16 10.5 16 C 11.5 16 12 16.8 12 18 C 12 16.8 12.5 16 13.5 16 C 14.5 16 15 17 15 18 C 15 17 15.5 16.5 16 16.5 C 16.5 16.5 17 17.2 17 18 C 17.5 17.5 18 17.7 18.5 18 C 19.5 18.5 19.5 20 19.5 20 L 4.5 20 Z"
       style="stroke:#000000;stroke-opacity:1"
       stroke-width="0.8"
       stroke-linecap="round"
       stroke-linejoin="round"
       fill="none"
       id="cloud" />

    <!-- Lighthouse tower (tapered trapezoid) - base hidden in cloud -->
    <path
       d="M 13 6 L 11 6 L 10.2 16 M 13.8 16 L 13 6"
       style="stroke:#000000;stroke-opacity:1"
       stroke-width="0.8"
       stroke-linecap="round"
       stroke-linejoin="round"
       fill="none"
       id="tower" />

    <!-- Lighthouse top cap -->
    <path
       d="M 10.8 3.5 L 13.2 3.5"
       style="stroke:#000000;stroke-opacity:1"
       stroke-width="0.8"
       stroke-linecap="round"
       id="cap" />

    <!-- Horizontal stripes on tower -->
    <path
       d="M 10.5 9 L 13.5 9"
       style="stroke:#000000;stroke-opacity:1"
       stroke-width="0.6"
       stroke-linecap="round"
       id="stripe1" />
    <path
       d="M 10.3 12 L 13.7 12"
       style="stroke:#000000;stroke-opacity:1"
       stroke-width="0.6"
       stroke-linecap="round"
       id="stripe2" />

    <!-- Lighthouse top dome/light housing -->
    <ellipse
       cx="12"
       cy="4.5"
       rx="2"
       ry="1.3"
       style="stroke:#000000;stroke-opacity:1"
       stroke-width="0.8"
       fill="none"
       id="dome" />
  </g>
</svg>
