<?xml version="1.0" encoding="UTF-8" standalone="no"?>
<!-- Created with Inkscape (http://www.inkscape.org/) -->

<svg
   version="1.1"
   id="svg8"
   inkscape:version="1.3.2 (091e20ef0f, 2023-11-25, custom)"
   sodipodi:docname="sandpolis.svg"
   viewBox="0 0 64 64"
   height="64"
   width="64"
   xmlns:inkscape="http://www.inkscape.org/namespaces/inkscape"
   xmlns:sodipodi="http://sodipodi.sourceforge.net/DTD/sodipodi-0.dtd"
   xmlns="http://www.w3.org/2000/svg"
   xmlns:svg="http://www.w3.org/2000/svg"
   xmlns:rdf="http://www.w3.org/1999/02/22-rdf-syntax-ns#"
   xmlns:cc="http://creativecommons.org/ns#"
   xmlns:dc="http://purl.org/dc/elements/1.1/">
  <defs
     id="defs2" />
  <sodipodi:namedview
     id="base"
     pagecolor="#ffffff"
     bordercolor="#666666"
     borderopacity="1.0"
     inkscape:pageopacity="0.0"
     inkscape:pageshadow="2"
     inkscape:zoom="22.627417"
     inkscape:cx="57.165164"
     inkscape:cy="34.250485"
     inkscape:document-units="px"
     inkscape:current-layer="svg8"
     showgrid="false"
     inkscape:window-width="5076"
     inkscape:window-height="1372"
     inkscape:window-x="0"
     inkscape:window-y="0"
     inkscape:window-maximized="1"
     units="px"
     fit-margin-top="0"
     fit-margin-left="0"
     fit-margin-right="0"
     fit-margin-bottom="0"
     inkscape:showpageshadow="0"
     inkscape:pagecheckerboard="0"
     inkscape:deskcolor="#505050" />
  <metadata
     id="metadata5">
    <rdf:RDF>
      <cc:Work
         rdf:about="">
        <dc:format>image/svg+xml</dc:format>
        <dc:type
           rdf:resource="http://purl.org/dc/dcmitype/StillImage" />
      </cc:Work>
    </rdf:RDF>
  </metadata>
  <g
     id="g1">
    <path
       sodipodi:nodetypes="sssccccccccccccccccccssccscccsscsscssssssssssssssssssssss"
       inkscape:connector-curvature="0"
       id="path4319-6"
       d="m 6.8514231,27.373719 c -8.3038954,8.303896 -8.3038955,21.891978 2e-7,30.195874 8.5025527,8.502554 22.1701827,8.422773 30.7521987,-0.15924 5.153841,-5.153841 7.269503,-12.130109 5.877585,-18.830887 l 4.84353,-4.846284 v -2.560328 l 1.880618,-1.873701 2.550678,0.0028 1.341518,-1.341519 -2e-6,-2.557569 1.444236,-1.444236 2.505178,0.05239 1.341518,-1.341518 v -4.210683 c 0,-0.985573 0.005,-0.99201 0.992007,-0.992008 h 1.654493 l 1.341517,-1.341517 -1.4e-5,-14.1087036 c 0,0 -5.07387,-3.9887136 -12.893326,-0.44878 L 29.687561,22.403346 c -3.68944,-1.387503 -6.111954,-1.744279 -9.724281,-1.387017 -4.886982,0.516511 -9.536017,2.78155 -13.1118569,6.35739 z m 5.3640039,5.12548 c 3.416859,-3.416858 6.833192,-4.609429 11.402214,-4.013523 l 1.890258,1.890258 c 0.640884,0.64087 1.617676,0.648979 2.267344,-6.89e-4 L 51.572368,6.5781203 C 54.53973,4.4464675 57.034543,4.6213979 59.095481,5.5116652 l 0.0042,6.9530028 -24.935366,24.935278 c -0.606294,0.606291 -0.670161,1.597875 -2e-6,2.268033 l 1.89026,1.890258 c 0.07946,4.926714 -0.994045,7.905689 -3.814987,10.72663 C 26.796393,57.72809 17.857626,57.609264 12.374672,52.126312 9.9907789,49.742417 8.3610151,46.285967 8.1226254,43.027979 7.8047725,39.134287 9.2355603,35.479066 12.215427,32.499199 Z m 1.014254,8.590234 c -0.452184,0.452185 -0.896935,1.299915 -0.561404,1.635446 l 9.095429,9.09543 c 0.335531,0.335531 1.183262,-0.109228 1.635446,-0.561405 0.452183,-0.452184 0.858686,-1.338076 0.561361,-1.635401 l -9.09543,-9.095429 c -0.297326,-0.297326 -1.183218,0.109168 -1.635402,0.561359 z m 0.457626,0.460381 c 0.217116,-0.217117 0.680996,-0.668771 1.076787,-0.272978 l 8.447677,8.447677 c 0.401305,0.401305 -0.05585,0.85967 -0.272978,1.076785 -0.217116,0.217118 -0.676689,0.670268 -1.075381,0.271575 l -8.447679,-8.447678 c -0.390424,-0.390424 0.05446,-0.858266 0.271574,-1.075381 z M 30.652684,29.93956 c -0.293307,0.293307 -0.434468,0.624405 -0.141153,0.917712 0.29331,0.293309 0.623907,0.151647 0.917692,-0.141193 L 53.173524,9.0423727 C 53.467325,8.7495584 53.572719,8.3826933 53.279411,8.0893849 52.986102,7.7960762 52.655007,7.9372381 52.361697,8.2305467 Z"
       style="font-style:normal;font-variant:normal;font-weight:600;font-stretch:normal;font-size:397.333px;line-height:1.25;font-family:'URW Gothic';-inkscape-font-specification:'URW Gothic Semi-Bold';letter-spacing:0px;word-spacing:0px;fill:#000000;fill-opacity:1;stroke:none;stroke-width:0.141415;image-rendering:auto" />
  </g>
</svg>
