<?xml version="1.0" encoding="UTF-8" standalone="no"?>
<!-- Uploaded to: SVG Repo, www.svgrepo.com, Generator: SVG Repo Mixer Tools -->

<svg
   width="64"
   height="64"
   viewBox="0 0 64 64"
   fill="none"
   version="1.1"
   id="svg1"
   sodipodi:docname="turbine.svg"
   inkscape:version="1.3.2 (091e20ef0f, 2023-11-25, custom)"
   xmlns:inkscape="http://www.inkscape.org/namespaces/inkscape"
   xmlns:sodipodi="http://sodipodi.sourceforge.net/DTD/sodipodi-0.dtd"
   xmlns="http://www.w3.org/2000/svg"
   xmlns:svg="http://www.w3.org/2000/svg">
  <defs
     id="defs1" />
  <sodipodi:namedview
     id="namedview1"
     pagecolor="#505050"
     bordercolor="#eeeeee"
     borderopacity="1"
     inkscape:showpageshadow="0"
     inkscape:pageopacity="0"
     inkscape:pagecheckerboard="0"
     inkscape:deskcolor="#505050"
     inkscape:export-bgcolor="#ffffff00"
     inkscape:zoom="9.88"
     inkscape:cx="19.736842"
     inkscape:cy="25.506073"
     inkscape:window-width="5076"
     inkscape:window-height="1372"
     inkscape:window-x="0"
     inkscape:window-y="0"
     inkscape:window-maximized="1"
     inkscape:current-layer="svg1" />
  <g
     id="g1">
    <path
       d="m 60.742205,24.016055 c 0,7.937 -12.868205,14.371102 -28.742206,14.371102 M 60.742205,24.016055 c 0,-7.936936 -12.868205,-14.3711017 -28.742206,-14.3711017 -15.873872,0 -28.7422038,6.4341657 -28.7422038,14.3711017 m 57.4844098,0 v 17.564679 c 0,7.054937 -12.868205,12.774313 -28.742206,12.774313 m 0,-15.96789 c -15.873872,0 -28.7422038,-6.434102 -28.7422038,-14.371102 M 31.999999,38.387157 v 15.96789 M 3.2577952,24.016055 v 17.564679 c 0,7.054937 12.8683318,12.774313 28.7422038,12.774313 M 16.032108,52.203853 V 35.967064 M 47.967889,52.203853 V 35.967064 M 44.774312,24.016055 c 0,2.645561 -5.71938,4.790368 -12.774313,4.790368 -7.055061,0 -12.774313,-2.144808 -12.774313,-4.790368 0,-2.645655 5.719252,-4.790367 12.774313,-4.790367 7.054933,0 12.774313,2.144713 12.774313,4.790367 z"
       stroke-width="6.000"
       stroke-linecap="round"
       stroke-linejoin="round"
       id="path1"
       style="stroke:#000000;stroke-opacity:1" />
  </g>
</svg>
