<?xml version="1.0" encoding="UTF-8" standalone="no"?>
<svg
   width="64"
   height="64"
   viewBox="0 0 64 64"
   fill="none"
   version="1.1"
   id="svg1"
   xmlns="http://www.w3.org/2000/svg"
   xmlns:svg="http://www.w3.org/2000/svg">
  <g
     id="g1">
    <path
       d="m 47.637827,26.461008 c 0,5.506423 -8.927526,9.970186 -19.940372,9.970186 m 19.940372,-9.970186 c 0,-5.506378 -8.927526,-9.970184 -19.940372,-9.970184 -11.012755,0 -19.9403688,4.463806 -19.9403688,9.970184 m 39.8807408,0 v 12.185781 c 0,4.894478 -8.927526,8.862387 -19.940372,8.862387 m 0,-11.077982 c -11.012755,0 -19.9403688,-4.463763 -19.9403688,-9.970186 M 27.697455,36.431194 V 47.509176 M 7.7570862,26.461008 v 12.185781 c 0,4.894478 8.9276138,8.862387 19.9403688,8.862387 M 16.619472,46.016751 V 34.752215 M 38.775438,46.016751 V 34.752215 m -2.215596,-8.291207 c 0,1.835401 -3.967913,3.323396 -8.862387,3.323396 -4.894563,0 -8.862387,-1.487995 -8.862387,-3.323396 0,-1.835465 3.967824,-3.323394 8.862387,-3.323394 4.894474,0 8.862387,1.48793 8.862387,3.323394 z"
       stroke-width="3.46883"
       stroke-linecap="round"
       stroke-linejoin="round"
       id="path1"
       style="stroke:#000000;stroke-opacity:1" />
  </g>
</svg>
