<svg width="208" height="69" fill="none" xmlns="http://www.w3.org/2000/svg" xmlns:xlink="http://www.w3.org/1999/xlink">
  <g transform="translate(3,3)">
    <path id="hash-v1" style="fill:none;stroke:#248467;stroke-width:5;stroke-linecap:round;stroke-linejoin:round" d="M 18 16 V 48"/>
    <path id="hash-v2" style="fill:none;stroke:#248467;stroke-width:5;stroke-linecap:round;stroke-linejoin:round" d="M 30 16 V 48"/>
    <path id="hash-h1" style="fill:none;stroke:#248467;stroke-width:5;stroke-linecap:round;stroke-linejoin:round" d="M 14 26 H 34"/>
    <path id="hash-h2" style="fill:none;stroke:#248467;stroke-width:5;stroke-linecap:round;stroke-linejoin:round" d="M 14 38 H 34"/>
    <path id="bang" style="fill:none;stroke:#248467;stroke-width:5;stroke-linecap:round;stroke-linejoin:round" d="M 44 16 V 40"/>
    <circle cx="44" cy="48" id="bang-dot" r="3.2" style="fill:#248467;stroke:none"/>
  </g>
  <g transform="">
    <rect style="fill:#248467" id="4-0" width="7" height="7" x="57" y="39" rx="1"/>
    <rect style="fill:#248467" id="3-1" width="7" height="7" x="65" y="31" rx="1"/>
    <rect style="fill:#248467" id="5-1" width="7" height="7" x="65" y="47" rx="1"/>
    <rect style="fill:#248467" id="3-2" width="7" height="7" x="73" y="31" rx="1"/>
    <rect style="fill:#248467" id="4-2" width="7" height="7" x="73" y="39" rx="1"/>
    <rect style="fill:#248467" id="5-2" width="7" height="7" x="73" y="47" rx="1"/>
    <rect style="fill:#248467" id="1-4" width="7" height="7" x="86" y="15" rx="1"/>
    <rect style="fill:#248467" id="2-4" width="7" height="7" x="86" y="23" rx="1"/>
    <rect style="fill:#248467" id="3-4" width="7" height="7" x="86" y="31" rx="1"/>
    <rect style="fill:#248467" id="4-4" width="7" height="7" x="86" y="39" rx="1"/>
    <rect style="fill:#248467" id="5-4" width="7" height="7" x="86" y="47" rx="1"/>
    <rect style="fill:#248467" id="2-5" width="7" height="7" x="94" y="23" rx="1"/>
    <rect style="fill:#248467" id="5-5" width="7" height="7" x="94" y="47" rx="1"/>
    <rect style="fill:#248467" id="1-7" width="7" height="7" x="107" y="15" rx="1"/>
    <rect style="fill:#248467" id="2-7" width="7" height="7" x="107" y="23" rx="1"/>
    <rect style="fill:#248467" id="3-7" width="7" height="7" x="107" y="31" rx="1"/>
    <rect style="fill:#248467" id="4-7" width="7" height="7" x="107" y="39" rx="1"/>
    <rect style="fill:#248467" id="5-7" width="7" height="7" x="107" y="47" rx="1"/>
    <rect style="fill:#248467" id="2-8" width="7" height="7" x="115" y="23" rx="1"/>
    <rect style="fill:#248467" id="5-8" width="7" height="7" x="115" y="47" rx="1"/>
    <rect style="fill:#248467" id="4-10" width="7" height="7" x="128" y="39" rx="1"/>
    <rect style="fill:#248467" id="3-11" width="7" height="7" x="136" y="31" rx="1"/>
    <rect style="fill:#248467" id="4-11" width="7" height="7" x="136" y="39" rx="1"/>
    <rect style="fill:#248467" id="5-11" width="7" height="7" x="136" y="47" rx="1"/>
    <rect style="fill:#248467" id="3-12" width="7" height="7" x="144" y="31" rx="1"/>
    <rect style="fill:#248467" id="5-12" width="7" height="7" x="144" y="47" rx="1"/>
    <rect style="fill:#248467" id="5-14" width="7" height="7" x="157" y="47" rx="1"/>
    <rect style="fill:#248467" id="3-15" width="7" height="7" x="165" y="31" rx="1"/>
    <rect style="fill:#248467" id="4-15" width="7" height="7" x="165" y="39" rx="1"/>
    <rect style="fill:#248467" id="5-15" width="7" height="7" x="165" y="47" rx="1"/>
    <rect style="fill:#248467" id="3-16" width="7" height="7" x="173" y="31" rx="1"/>
    <rect style="fill:#248467" id="1-18" width="7" height="7" x="186" y="15" rx="1"/>
    <rect style="fill:#248467" id="2-18" width="7" height="7" x="186" y="23" rx="1"/>
    <rect style="fill:#248467" id="3-18" width="7" height="7" x="186" y="31" rx="1"/>
    <rect style="fill:#248467" id="4-18" width="7" height="7" x="186" y="39" rx="1"/>
    <rect style="fill:#248467" id="5-18" width="7" height="7" x="186" y="47" rx="1"/>
    <rect style="fill:#248467" id="2-19" width="7" height="7" x="194" y="23" rx="1"/>
    <rect style="fill:#248467" id="5-19" width="7" height="7" x="194" y="47" rx="1"/>
  </g>
</svg>