<svg width="266" height="69" fill="none" xmlns="http://www.w3.org/2000/svg" xmlns:xlink="http://www.w3.org/1999/xlink">
  <g transform="translate(3,3)">
    <path id="rect5" style="fill:#c8ab37;stroke-width:0.0818598" d="m 10.574338,46.498122 -0.37125,0.37109 -0.3710801,0.37107 v 8.09867 8.09865 l 0.3710801,0.37093 c 0.35693,0.35692 0.40288,0.37109 1.20071,0.37109 h 0.82947 l 4.7e-4,-3.35625 c 3.7e-4,-3.15648 0.0133,-3.37726 0.21727,-3.71181 0.11929,-0.19565 0.37689,-0.45341 0.57254,-0.5727 0.34197,-0.20851 0.55969,-0.21697 5.62753,-0.21727 5.70114,-3.2e-4 5.56169,-0.0142 6.13403,0.59811 l 0.27275,0.29195 0.0319,3.49533 0.0317,3.4955 0.86704,-0.0395 c 0.77467,-0.0351 0.89916,-0.0715 1.1689,-0.34118 l 0.30186,-0.30186 0.0299,-6.44581 0.0297,-6.44595 -2.04905,-2.06471 -2.04904,-2.06471 -0.57302,-3.2e-4 -0.57302,-3e-4 v 1.39704 c 0,0.94108 -0.0428,1.43976 -0.13094,1.52799 -0.18721,0.18722 -6.75437,0.18722 -6.94159,0 -0.0882,-0.0882 -0.13111,-0.58691 -0.13111,-1.52799 v -1.39704 h -2.24842 z m 5.36995,0 v 1.03683 1.037 h 2.72854 2.72871 v -1.037 -1.03683 h -2.72871 z m 2.72854,10.69626 c -4.88426,0 -4.99741,0.005 -5.27881,0.22622 l -0.28764,0.22625 v 3.26654 3.26638 h 5.56645 5.56645 v -3.26638 -3.26654 l -0.28747,-0.22625 c -0.28142,-0.22134 -0.3947,-0.22622 -5.27898,-0.22622 z m -4.31121,1.36443 h 4.31121 4.31138 v 0.38195 0.38196 l -4.28692,0.0286 c -4.63027,0.0308 -4.45544,0.0524 -4.37164,-0.53912 z m 4.31969,1.6917 c 4.43351,0 4.4192,-0.002 4.33855,0.56695 l -0.0357,0.25165 -4.26453,0.0286 c -2.3455,0.0157 -4.29786,-0.005 -4.33857,-0.0455 -0.11963,-0.11964 -0.085,-0.52885 0.0569,-0.6707 0.0972,-0.0972 1.19029,-0.13095 4.24327,-0.13095 z m -0.009,1.7464 c 4.31629,0 4.36589,0.005 4.36589,0.49116 0,0.12606 -0.0589,0.28801 -0.13094,0.36004 -0.18796,0.18798 -8.28178,0.18798 -8.46974,0 -0.0721,-0.0721 -0.13095,-0.23398 -0.13095,-0.36004 0,-0.4856 0.0494,-0.49116 4.36574,-0.49116 z"/>
    <path id="path4" style="fill:#c8ab37;stroke:none;stroke-width:0.432267" d="m 12.377768,41.293912 c 0,-0.76882 0.24034,-2.03048 -0.15674,-2.713 -0.3863,-0.66401 -1.39502,-1.13151 -1.97818,-1.62378 -1.0908701,-0.92086 -1.2968301,-0.87875 -2.8309101,-3.28792 -1.53408,-2.40916 -3.42021,-8.3433 -4.07446,-11.26457 -0.65424,-2.92126 -0.98581,-3.4935 -0.85818,-5.35729 0.11967,-1.7475 0.60454,-3.43182 1.29467,-5.0323 5.48567,-12.72192352 24.7143301,-12.48996152 30.3633901,-0.15249 1.85348,4.04797 1.12805,9.14625 0.38702,11.08931 -0.74102,1.94305 -3.68302,9.65731 -3.97097,10.41235 -0.28795,0.75504 -1.89484,2.54946 -3.07871,3.64609 -0.53822,0.49857 -1.42357,0.8896 -1.7638,1.5546 -0.37793,0.73868 -0.21863,1.77371 -0.21863,2.57651 5.8499,-1.68525 9.22147,-9.22748 10.4342,-14.63943 0.71087,-3.17232 2.12838,-6.63813 1.90417,-9.91212 C 37.247768,8.0784865 30.371538,1.2344695 21.984908,0.16404648 12.531598,-1.0425275 2.4070679,4.4804335 0.39933795,14.302452 c -0.29821,1.4589 -0.53826,3.09178 -0.30663,4.57483 0.26127,1.67283 1.04907995,3.55946 1.28171995,4.87981 1.18752,6.73966 4.29749,14.73012 11.0033501,17.53682 m 9.021216,5.347636 c 0.01307,-5.204404 1.045096,-5.397316 1.470309,-10.594415 0.11218,-1.371109 0.127995,-2.923061 0.777745,-5.580511 0.83678,-3.42279 3.786,-4.26857 5.94833,-6.55948 2.14591,-2.2735 2.52981,-5.74524 1.86123,-8.68993 C 28.728428,3.2012125 9.3565879,3.0162445 6.4149779,15.064712 c -0.77889,3.19022 0.0611,6.72589 2.32942,9.14353 2.1638301,2.30632 4.7041301,3.17639 5.5920301,6.56337 0.44441,1.69523 0.25908,3.45646 0.33476,5.1848 0.24955,5.60889 1.462607,5.438357 1.268371,10.680857"/>
  </g>
  <g transform="">
    <rect style="fill:#c8ab37" id="2-0" width="7" height="7" x="57" y="23" rx="1"/>
    <rect style="fill:#c8ab37" id="3-0" width="7" height="7" x="57" y="31" rx="1"/>
    <rect style="fill:#c8ab37" id="4-0" width="7" height="7" x="57" y="39" rx="1"/>
    <rect style="fill:#c8ab37" id="6-0" width="7" height="7" x="57" y="55" rx="1"/>
    <rect style="fill:#c8ab37" id="2-1" width="7" height="7" x="65" y="23" rx="1"/>
    <rect style="fill:#c8ab37" id="4-1" width="7" height="7" x="65" y="39" rx="1"/>
    <rect style="fill:#c8ab37" id="6-1" width="7" height="7" x="65" y="55" rx="1"/>
    <rect style="fill:#c8ab37" id="2-2" width="7" height="7" x="73" y="23" rx="1"/>
    <rect style="fill:#c8ab37" id="3-2" width="7" height="7" x="73" y="31" rx="1"/>
    <rect style="fill:#c8ab37" id="4-2" width="7" height="7" x="73" y="39" rx="1"/>
    <rect style="fill:#c8ab37" id="5-2" width="7" height="7" x="73" y="47" rx="1"/>
    <rect style="fill:#c8ab37" id="6-2" width="7" height="7" x="73" y="55" rx="1"/>
    <rect style="fill:#c8ab37" id="2-4" width="7" height="7" x="86" y="23" rx="1"/>
    <rect style="fill:#c8ab37" id="3-4" width="7" height="7" x="86" y="31" rx="1"/>
    <rect style="fill:#c8ab37" id="4-4" width="7" height="7" x="86" y="39" rx="1"/>
    <rect style="fill:#c8ab37" id="2-5" width="7" height="7" x="94" y="23" rx="1"/>
    <rect style="fill:#c8ab37" id="4-5" width="7" height="7" x="94" y="39" rx="1"/>
    <rect style="fill:#c8ab37" id="2-6" width="7" height="7" x="102" y="23" rx="1"/>
    <rect style="fill:#c8ab37" id="3-6" width="7" height="7" x="102" y="31" rx="1"/>
    <rect style="fill:#c8ab37" id="4-6" width="7" height="7" x="102" y="39" rx="1"/>
    <rect style="fill:#c8ab37" id="0-8" width="7" height="7" x="115" y="7" rx="1"/>
    <rect style="fill:#c8ab37" id="1-8" width="7" height="7" x="115" y="15" rx="1"/>
    <rect style="fill:#c8ab37" id="2-8" width="7" height="7" x="115" y="23" rx="1"/>
    <rect style="fill:#c8ab37" id="3-8" width="7" height="7" x="115" y="31" rx="1"/>
    <rect style="fill:#c8ab37" id="4-8" width="7" height="7" x="115" y="39" rx="1"/>
    <rect style="fill:#c8ab37" id="2-10" width="7" height="7" x="128" y="23" rx="1"/>
    <rect style="fill:#c8ab37" id="3-10" width="7" height="7" x="128" y="31" rx="1"/>
    <rect style="fill:#c8ab37" id="4-10" width="7" height="7" x="128" y="39" rx="1"/>
    <rect style="fill:#c8ab37" id="2-11" width="7" height="7" x="136" y="23" rx="1"/>
    <rect style="fill:#c8ab37" id="4-11" width="7" height="7" x="136" y="39" rx="1"/>
    <rect style="fill:#c8ab37" id="0-12" width="7" height="7" x="144" y="7" rx="1"/>
    <rect style="fill:#c8ab37" id="1-12" width="7" height="7" x="144" y="15" rx="1"/>
    <rect style="fill:#c8ab37" id="2-12" width="7" height="7" x="144" y="23" rx="1"/>
    <rect style="fill:#c8ab37" id="3-12" width="7" height="7" x="144" y="31" rx="1"/>
    <rect style="fill:#c8ab37" id="4-12" width="7" height="7" x="144" y="39" rx="1"/>
    <rect style="fill:#c8ab37" id="0-14" width="7" height="7" x="157" y="7" rx="1"/>
    <rect style="fill:#c8ab37" id="1-14" width="7" height="7" x="157" y="15" rx="1"/>
    <rect style="fill:#c8ab37" id="2-14" width="7" height="7" x="157" y="23" rx="1"/>
    <rect style="fill:#c8ab37" id="3-14" width="7" height="7" x="157" y="31" rx="1"/>
    <rect style="fill:#c8ab37" id="4-14" width="7" height="7" x="157" y="39" rx="1"/>
    <rect style="fill:#c8ab37" id="2-15" width="7" height="7" x="165" y="23" rx="1"/>
    <rect style="fill:#c8ab37" id="4-15" width="7" height="7" x="165" y="39" rx="1"/>
    <rect style="fill:#c8ab37" id="2-16" width="7" height="7" x="173" y="23" rx="1"/>
    <rect style="fill:#c8ab37" id="3-16" width="7" height="7" x="173" y="31" rx="1"/>
    <rect style="fill:#c8ab37" id="4-16" width="7" height="7" x="173" y="39" rx="1"/>
    <rect style="fill:#c8ab37" id="2-18" width="7" height="7" x="186" y="23" rx="1"/>
    <rect style="fill:#c8ab37" id="3-18" width="7" height="7" x="186" y="31" rx="1"/>
    <rect style="fill:#c8ab37" id="4-18" width="7" height="7" x="186" y="39" rx="1"/>
    <rect style="fill:#c8ab37" id="2-19" width="7" height="7" x="194" y="23" rx="1"/>
    <rect style="fill:#c8ab37" id="4-19" width="7" height="7" x="194" y="39" rx="1"/>
    <rect style="fill:#c8ab37" id="2-20" width="7" height="7" x="202" y="23" rx="1"/>
    <rect style="fill:#c8ab37" id="3-20" width="7" height="7" x="202" y="31" rx="1"/>
    <rect style="fill:#c8ab37" id="4-20" width="7" height="7" x="202" y="39" rx="1"/>
    <rect style="fill:#c8ab37" id="2-22" width="7" height="7" x="215" y="23" rx="1"/>
    <rect style="fill:#c8ab37" id="3-22" width="7" height="7" x="215" y="31" rx="1"/>
    <rect style="fill:#c8ab37" id="4-22" width="7" height="7" x="215" y="39" rx="1"/>
    <rect style="fill:#c8ab37" id="2-23" width="7" height="7" x="223" y="23" rx="1"/>
    <rect style="fill:#c8ab37" id="4-23" width="7" height="7" x="223" y="39" rx="1"/>
    <rect style="fill:#c8ab37" id="2-24" width="7" height="7" x="231" y="23" rx="1"/>
    <rect style="fill:#c8ab37" id="3-24" width="7" height="7" x="231" y="31" rx="1"/>
    <rect style="fill:#c8ab37" id="4-24" width="7" height="7" x="231" y="39" rx="1"/>
    <rect style="fill:#c8ab37" id="0-26" width="7" height="7" x="244" y="7" rx="1"/>
    <rect style="fill:#c8ab37" id="1-26" width="7" height="7" x="244" y="15" rx="1"/>
    <rect style="fill:#c8ab37" id="2-26" width="7" height="7" x="244" y="23" rx="1"/>
    <rect style="fill:#c8ab37" id="3-26" width="7" height="7" x="244" y="31" rx="1"/>
    <rect style="fill:#c8ab37" id="4-26" width="7" height="7" x="244" y="39" rx="1"/>
    <rect style="fill:#c8ab37" id="1-27" width="7" height="7" x="252" y="15" rx="1"/>
    <rect style="fill:#c8ab37" id="4-27" width="7" height="7" x="252" y="39" rx="1"/>
  </g>
</svg>