<svg width="287" height="69" fill="none" xmlns="http://www.w3.org/2000/svg" xmlns:xlink="http://www.w3.org/1999/xlink">
  <g transform="translate(3,3)">
    <path id="path4319-6" style="font-style:normal;font-variant:normal;font-weight:600;font-stretch:normal;font-size:397.333px;line-height:1.25;font-family:&apos;URW Gothic&apos;;-inkscape-font-specification:&apos;URW Gothic Semi-Bold&apos;;letter-spacing:0px;word-spacing:0px;fill:#c89437;fill-opacity:1;stroke:none;stroke-width:0.141415;image-rendering:auto" d="m 6.8514231,27.373719 c -8.3038954,8.303896 -8.3038955,21.891978 2e-7,30.195874 8.5025527,8.502554 22.1701827,8.422773 30.7521987,-0.15924 5.153841,-5.153841 7.269503,-12.130109 5.877585,-18.830887 l 4.84353,-4.846284 v -2.560328 l 1.880618,-1.873701 2.550678,0.0028 1.341518,-1.341519 -2e-6,-2.557569 1.444236,-1.444236 2.505178,0.05239 1.341518,-1.341518 v -4.210683 c 0,-0.985573 0.005,-0.99201 0.992007,-0.992008 h 1.654493 l 1.341517,-1.341517 -1.4e-5,-14.1087036 c 0,0 -5.07387,-3.9887136 -12.893326,-0.44878 L 29.687561,22.403346 c -3.68944,-1.387503 -6.111954,-1.744279 -9.724281,-1.387017 -4.886982,0.516511 -9.536017,2.78155 -13.1118569,6.35739 z m 5.3640039,5.12548 c 3.416859,-3.416858 6.833192,-4.609429 11.402214,-4.013523 l 1.890258,1.890258 c 0.640884,0.64087 1.617676,0.648979 2.267344,-6.89e-4 L 51.572368,6.5781203 C 54.53973,4.4464675 57.034543,4.6213979 59.095481,5.5116652 l 0.0042,6.9530028 -24.935366,24.935278 c -0.606294,0.606291 -0.670161,1.597875 -2e-6,2.268033 l 1.89026,1.890258 c 0.07946,4.926714 -0.994045,7.905689 -3.814987,10.72663 C 26.796393,57.72809 17.857626,57.609264 12.374672,52.126312 9.9907789,49.742417 8.3610151,46.285967 8.1226254,43.027979 7.8047725,39.134287 9.2355603,35.479066 12.215427,32.499199 Z m 1.014254,8.590234 c -0.452184,0.452185 -0.896935,1.299915 -0.561404,1.635446 l 9.095429,9.09543 c 0.335531,0.335531 1.183262,-0.109228 1.635446,-0.561405 0.452183,-0.452184 0.858686,-1.338076 0.561361,-1.635401 l -9.09543,-9.095429 c -0.297326,-0.297326 -1.183218,0.109168 -1.635402,0.561359 z m 0.457626,0.460381 c 0.217116,-0.217117 0.680996,-0.668771 1.076787,-0.272978 l 8.447677,8.447677 c 0.401305,0.401305 -0.05585,0.85967 -0.272978,1.076785 -0.217116,0.217118 -0.676689,0.670268 -1.075381,0.271575 l -8.447679,-8.447678 c -0.390424,-0.390424 0.05446,-0.858266 0.271574,-1.075381 z M 30.652684,29.93956 c -0.293307,0.293307 -0.434468,0.624405 -0.141153,0.917712 0.29331,0.293309 0.623907,0.151647 0.917692,-0.141193 L 53.173524,9.0423727 C 53.467325,8.7495584 53.572719,8.3826933 53.279411,8.0893849 52.986102,7.7960762 52.655007,7.9372381 52.361697,8.2305467 Z"/>
  </g>
  <g transform="">
    <rect style="fill:#c89437" id="4-0" width="7" height="7" x="57" y="39" rx="1"/>
    <rect style="fill:#c89437" id="2-1" width="7" height="7" x="65" y="23" rx="1"/>
    <rect style="fill:#c89437" id="3-1" width="7" height="7" x="65" y="31" rx="1"/>
    <rect style="fill:#c89437" id="4-1" width="7" height="7" x="65" y="39" rx="1"/>
    <rect style="fill:#c89437" id="2-2" width="7" height="7" x="73" y="23" rx="1"/>
    <rect style="fill:#c89437" id="3-4" width="7" height="7" x="86" y="31" rx="1"/>
    <rect style="fill:#c89437" id="2-5" width="7" height="7" x="94" y="23" rx="1"/>
    <rect style="fill:#c89437" id="4-5" width="7" height="7" x="94" y="39" rx="1"/>
    <rect style="fill:#c89437" id="2-6" width="7" height="7" x="102" y="23" rx="1"/>
    <rect style="fill:#c89437" id="3-6" width="7" height="7" x="102" y="31" rx="1"/>
    <rect style="fill:#c89437" id="4-6" width="7" height="7" x="102" y="39" rx="1"/>
    <rect style="fill:#c89437" id="2-8" width="7" height="7" x="115" y="23" rx="1"/>
    <rect style="fill:#c89437" id="3-8" width="7" height="7" x="115" y="31" rx="1"/>
    <rect style="fill:#c89437" id="4-8" width="7" height="7" x="115" y="39" rx="1"/>
    <rect style="fill:#c89437" id="2-9" width="7" height="7" x="123" y="23" rx="1"/>
    <rect style="fill:#c89437" id="2-10" width="7" height="7" x="131" y="23" rx="1"/>
    <rect style="fill:#c89437" id="3-10" width="7" height="7" x="131" y="31" rx="1"/>
    <rect style="fill:#c89437" id="4-10" width="7" height="7" x="131" y="39" rx="1"/>
    <rect style="fill:#c89437" id="2-12" width="7" height="7" x="144" y="23" rx="1"/>
    <rect style="fill:#c89437" id="3-12" width="7" height="7" x="144" y="31" rx="1"/>
    <rect style="fill:#c89437" id="4-12" width="7" height="7" x="144" y="39" rx="1"/>
    <rect style="fill:#c89437" id="2-13" width="7" height="7" x="152" y="23" rx="1"/>
    <rect style="fill:#c89437" id="4-13" width="7" height="7" x="152" y="39" rx="1"/>
    <rect style="fill:#c89437" id="0-14" width="7" height="7" x="160" y="7" rx="1"/>
    <rect style="fill:#c89437" id="1-14" width="7" height="7" x="160" y="15" rx="1"/>
    <rect style="fill:#c89437" id="2-14" width="7" height="7" x="160" y="23" rx="1"/>
    <rect style="fill:#c89437" id="3-14" width="7" height="7" x="160" y="31" rx="1"/>
    <rect style="fill:#c89437" id="4-14" width="7" height="7" x="160" y="39" rx="1"/>
    <rect style="fill:#c89437" id="2-16" width="7" height="7" x="173" y="23" rx="1"/>
    <rect style="fill:#c89437" id="3-16" width="7" height="7" x="173" y="31" rx="1"/>
    <rect style="fill:#c89437" id="4-16" width="7" height="7" x="173" y="39" rx="1"/>
    <rect style="fill:#c89437" id="5-16" width="7" height="7" x="173" y="47" rx="1"/>
    <rect style="fill:#c89437" id="6-16" width="7" height="7" x="173" y="55" rx="1"/>
    <rect style="fill:#c89437" id="2-17" width="7" height="7" x="181" y="23" rx="1"/>
    <rect style="fill:#c89437" id="4-17" width="7" height="7" x="181" y="39" rx="1"/>
    <rect style="fill:#c89437" id="2-18" width="7" height="7" x="189" y="23" rx="1"/>
    <rect style="fill:#c89437" id="3-18" width="7" height="7" x="189" y="31" rx="1"/>
    <rect style="fill:#c89437" id="4-18" width="7" height="7" x="189" y="39" rx="1"/>
    <rect style="fill:#c89437" id="2-20" width="7" height="7" x="202" y="23" rx="1"/>
    <rect style="fill:#c89437" id="3-20" width="7" height="7" x="202" y="31" rx="1"/>
    <rect style="fill:#c89437" id="4-20" width="7" height="7" x="202" y="39" rx="1"/>
    <rect style="fill:#c89437" id="2-21" width="7" height="7" x="210" y="23" rx="1"/>
    <rect style="fill:#c89437" id="4-21" width="7" height="7" x="210" y="39" rx="1"/>
    <rect style="fill:#c89437" id="2-22" width="7" height="7" x="218" y="23" rx="1"/>
    <rect style="fill:#c89437" id="3-22" width="7" height="7" x="218" y="31" rx="1"/>
    <rect style="fill:#c89437" id="4-22" width="7" height="7" x="218" y="39" rx="1"/>
    <rect style="fill:#c89437" id="0-24" width="7" height="7" x="231" y="7" rx="1"/>
    <rect style="fill:#c89437" id="1-24" width="7" height="7" x="231" y="15" rx="1"/>
    <rect style="fill:#c89437" id="2-24" width="7" height="7" x="231" y="23" rx="1"/>
    <rect style="fill:#c89437" id="3-24" width="7" height="7" x="231" y="31" rx="1"/>
    <rect style="fill:#c89437" id="4-24" width="7" height="7" x="231" y="39" rx="1"/>
    <rect style="fill:#c89437" id="2-26" width="7" height="7" x="244" y="23" rx="1"/>
    <rect style="fill:#c89437" id="3-26" width="7" height="7" x="244" y="31" rx="1"/>
    <rect style="fill:#c89437" id="4-26" width="7" height="7" x="244" y="39" rx="1"/>
    <rect style="fill:#c89437" id="4-28" width="7" height="7" x="257" y="39" rx="1"/>
    <rect style="fill:#c89437" id="2-29" width="7" height="7" x="265" y="23" rx="1"/>
    <rect style="fill:#c89437" id="3-29" width="7" height="7" x="265" y="31" rx="1"/>
    <rect style="fill:#c89437" id="4-29" width="7" height="7" x="265" y="39" rx="1"/>
    <rect style="fill:#c89437" id="2-30" width="7" height="7" x="273" y="23" rx="1"/>
  </g>
</svg>