<svg width="229" height="69" fill="none" xmlns="http://www.w3.org/2000/svg" xmlns:xlink="http://www.w3.org/1999/xlink">
  <g transform="translate(3,3)">
    <path id="path1" style="stroke:#378B2E;stroke-opacity:1" d="m 47.637827,26.461008 c 0,5.506423 -8.927526,9.970186 -19.940372,9.970186 m 19.940372,-9.970186 c 0,-5.506378 -8.927526,-9.970184 -19.940372,-9.970184 -11.012755,0 -19.9403688,4.463806 -19.9403688,9.970184 m 39.8807408,0 v 12.185781 c 0,4.894478 -8.927526,8.862387 -19.940372,8.862387 m 0,-11.077982 c -11.012755,0 -19.9403688,-4.463763 -19.9403688,-9.970186 M 27.697455,36.431194 V 47.509176 M 7.7570862,26.461008 v 12.185781 c 0,4.894478 8.9276138,8.862387 19.9403688,8.862387 M 16.619472,46.016751 V 34.752215 M 38.775438,46.016751 V 34.752215 m -2.215596,-8.291207 c 0,1.835401 -3.967913,3.323396 -8.862387,3.323396 -4.894563,0 -8.862387,-1.487995 -8.862387,-3.323396 0,-1.835465 3.967824,-3.323394 8.862387,-3.323394 4.894474,0 8.862387,1.48793 8.862387,3.323394 z" stroke-width="3.46883" stroke-linecap="round" stroke-linejoin="round"/>
  </g>
  <g transform="">
    <rect style="fill:#378B2E" id="0-0" width="7" height="7" x="57" y="7" rx="1"/>
    <rect style="fill:#378B2E" id="1-0" width="7" height="7" x="57" y="15" rx="1"/>
    <rect style="fill:#378B2E" id="2-0" width="7" height="7" x="57" y="23" rx="1"/>
    <rect style="fill:#378B2E" id="3-0" width="7" height="7" x="57" y="31" rx="1"/>
    <rect style="fill:#378B2E" id="4-0" width="7" height="7" x="57" y="39" rx="1"/>
    <rect style="fill:#378B2E" id="1-1" width="7" height="7" x="65" y="15" rx="1"/>
    <rect style="fill:#378B2E" id="4-1" width="7" height="7" x="65" y="39" rx="1"/>
    <rect style="fill:#378B2E" id="2-3" width="7" height="7" x="78" y="23" rx="1"/>
    <rect style="fill:#378B2E" id="3-3" width="7" height="7" x="78" y="31" rx="1"/>
    <rect style="fill:#378B2E" id="4-3" width="7" height="7" x="78" y="39" rx="1"/>
    <rect style="fill:#378B2E" id="4-4" width="7" height="7" x="86" y="39" rx="1"/>
    <rect style="fill:#378B2E" id="2-5" width="7" height="7" x="94" y="23" rx="1"/>
    <rect style="fill:#378B2E" id="3-5" width="7" height="7" x="94" y="31" rx="1"/>
    <rect style="fill:#378B2E" id="4-5" width="7" height="7" x="94" y="39" rx="1"/>
    <rect style="fill:#378B2E" id="2-7" width="7" height="7" x="107" y="23" rx="1"/>
    <rect style="fill:#378B2E" id="3-7" width="7" height="7" x="107" y="31" rx="1"/>
    <rect style="fill:#378B2E" id="4-7" width="7" height="7" x="107" y="39" rx="1"/>
    <rect style="fill:#378B2E" id="2-8" width="7" height="7" x="115" y="23" rx="1"/>
    <rect style="fill:#378B2E" id="0-10" width="7" height="7" x="128" y="7" rx="1"/>
    <rect style="fill:#378B2E" id="1-10" width="7" height="7" x="128" y="15" rx="1"/>
    <rect style="fill:#378B2E" id="2-10" width="7" height="7" x="128" y="23" rx="1"/>
    <rect style="fill:#378B2E" id="3-10" width="7" height="7" x="128" y="31" rx="1"/>
    <rect style="fill:#378B2E" id="4-10" width="7" height="7" x="128" y="39" rx="1"/>
    <rect style="fill:#378B2E" id="2-11" width="7" height="7" x="136" y="23" rx="1"/>
    <rect style="fill:#378B2E" id="4-11" width="7" height="7" x="136" y="39" rx="1"/>
    <rect style="fill:#378B2E" id="2-12" width="7" height="7" x="144" y="23" rx="1"/>
    <rect style="fill:#378B2E" id="3-12" width="7" height="7" x="144" y="31" rx="1"/>
    <rect style="fill:#378B2E" id="4-12" width="7" height="7" x="144" y="39" rx="1"/>
    <rect style="fill:#378B2E" id="2-14" width="7" height="7" x="157" y="23" rx="1"/>
    <rect style="fill:#378B2E" id="3-14" width="7" height="7" x="157" y="31" rx="1"/>
    <rect style="fill:#378B2E" id="4-14" width="7" height="7" x="157" y="39" rx="1"/>
    <rect style="fill:#378B2E" id="2-16" width="7" height="7" x="170" y="23" rx="1"/>
    <rect style="fill:#378B2E" id="3-16" width="7" height="7" x="170" y="31" rx="1"/>
    <rect style="fill:#378B2E" id="4-16" width="7" height="7" x="170" y="39" rx="1"/>
    <rect style="fill:#378B2E" id="2-17" width="7" height="7" x="178" y="23" rx="1"/>
    <rect style="fill:#378B2E" id="2-18" width="7" height="7" x="186" y="23" rx="1"/>
    <rect style="fill:#378B2E" id="3-18" width="7" height="7" x="186" y="31" rx="1"/>
    <rect style="fill:#378B2E" id="4-18" width="7" height="7" x="186" y="39" rx="1"/>
    <rect style="fill:#378B2E" id="3-20" width="7" height="7" x="199" y="31" rx="1"/>
    <rect style="fill:#378B2E" id="2-21" width="7" height="7" x="207" y="23" rx="1"/>
    <rect style="fill:#378B2E" id="3-21" width="7" height="7" x="207" y="31" rx="1"/>
    <rect style="fill:#378B2E" id="4-21" width="7" height="7" x="207" y="39" rx="1"/>
    <rect style="fill:#378B2E" id="2-22" width="7" height="7" x="215" y="23" rx="1"/>
    <rect style="fill:#378B2E" id="4-22" width="7" height="7" x="215" y="39" rx="1"/>
  </g>
</svg>